<svg id="Capa_1" data-name="Capa 1" xmlns="http://www.w3.org/2000/svg" viewBox="0 0 183.19 163.07"><defs><style>.cls-1{fill:#0b090c;stroke:#070308;stroke-miterlimit:10;stroke-width:5px;}</style></defs><title>botgrueso</title><g id="Capa_1-2" data-name="Capa 1-2"><path class="cls-1" d="M157.34,174H43c-6.89,0-12.51-4.28-12.51-9.53V99.86a5.61,5.61,0,0,1,0-.82c1.24-23.5,31.85-41.92,69.66-41.92s68.4,18.4,69.67,41.91c0,.26,0,.52,0,.8v64.63C169.86,169.71,164.24,174,157.34,174ZM100.15,60C82.57,60,66,64.15,53.37,71.66,41,79,33.92,88.8,33.36,99.24a4.34,4.34,0,0,0,0,.51v64.73c0,3.66,4.33,6.65,9.63,6.65H157.34c5.31,0,9.63-3,9.63-6.65V99.85a5.12,5.12,0,0,0,0-.56v-.05c-.56-10.43-7.66-20.2-20-27.59C134.35,64.13,117.76,60,100.15,60Z" transform="translate(-8.5 -14.5)"/><path class="cls-1" d="M157.34,175.07H43c-7.49,0-13.6-4.76-13.6-10.61V99.86c0-.29,0-.59,0-.89C30.67,74.9,61.75,56,100.14,56s69.45,18.87,70.75,43c0,.25,0,.54,0,.85v64.63C170.94,170.31,164.84,175.07,157.34,175.07ZM100.15,58.21c-37.21,0-67.36,17.94-68.59,40.89a4.33,4.33,0,0,0,0,.72v64.66c0,4.66,5.13,8.45,11.43,8.45H157.34c6.31,0,11.44-3.79,11.44-8.45V99.85a4.41,4.41,0,0,0,0-.72c-1.25-23-31.37-40.93-68.59-40.93Zm57.19,114H43c-5.9,0-10.71-3.47-10.71-7.73V99.76c0-.21,0-.41,0-.62.58-10.77,7.86-20.87,20.56-28.43s29.58-11.79,47.34-11.79S134.8,63.1,147.51,70.7s20,17.66,20.54,28.46c0,.24,0,.45,0,.67v64.63C168.06,168.72,163.25,172.19,157.34,172.19ZM100.15,61.1c-17.4,0-33.81,4.06-46.23,11.45C41.9,79.76,35,89.21,34.44,99.24a2.41,2.41,0,0,0,0,.38v64.81c0,3,3.92,5.56,8.55,5.56H157.34c4.64,0,8.55-2.56,8.55-5.56V99.79a3.23,3.23,0,0,0,0-.44v-.11c-.53-10.06-7.45-19.55-19.47-26.69C134,65.16,117.54,61.08,100.15,61.08Z" transform="translate(-8.5 -14.5)"/><path class="cls-1" d="M74.16,112.77a10.11,10.11,0,1,1,10.61-10.1A10.37,10.37,0,0,1,74.16,112.77Zm0-18a8,8,0,1,0,8.45,7.94A8.21,8.21,0,0,0,74.16,94.77Z" transform="translate(-8.5 -14.5)"/><path class="cls-1" d="M74.16,113.85a11.18,11.18,0,1,1,11.7-11.16A11.45,11.45,0,0,1,74.16,113.85Zm-9.53-11.16a9.55,9.55,0,0,0,19.06,0,9.55,9.55,0,0,1-19.06,0Zm9.53-6.84a6.85,6.85,0,1,0,7.37,6.84A7.12,7.12,0,0,0,74.16,95.85Z" transform="translate(-8.5 -14.5)"/><path class="cls-1" d="M121.37,112.77A10.11,10.11,0,1,1,132,102.67,10.37,10.37,0,0,1,121.37,112.77Zm0-18a8,8,0,1,0,8.45,7.94A8.21,8.21,0,0,0,121.37,94.77Z" transform="translate(-8.5 -14.5)"/><path class="cls-1" d="M121.37,113.85a11.18,11.18,0,1,1,11.69-11.16C133.06,108.85,127.78,113.85,121.37,113.85Zm-9.53-11.16a9.55,9.55,0,0,0,19.06,0,9.29,9.29,0,0,1-9.53,9c-5.26,0-9.57-4-9.57-9Zm9.53-6.84a6.85,6.85,0,1,0,7.36,6.84A7.13,7.13,0,0,0,121.37,95.85Z" transform="translate(-8.5 -14.5)"/><path class="cls-1" d="M101.4,38.24a10.37,10.37,0,0,1-10.61-10.1,10.61,10.61,0,0,1,21.2,0A10.35,10.35,0,0,1,101.4,38.24Zm0-18A8.21,8.21,0,0,0,93,28.18a8.46,8.46,0,0,0,16.88,0A8.19,8.19,0,0,0,101.4,20.25Z" transform="translate(-8.5 -14.5)"/><path class="cls-1" d="M101.4,39.32A11.45,11.45,0,0,1,89.71,28.16a11.71,11.71,0,0,1,23.39,0A11.46,11.46,0,0,1,101.4,39.32ZM91.87,28.16a9.55,9.55,0,0,0,19.06,0,9.55,9.55,0,0,1-19.06,0Zm9.53-6.83A7.11,7.11,0,0,0,94,28.16a7.39,7.39,0,0,0,14.73,0A7.1,7.1,0,0,0,101.4,21.33Z" transform="translate(-8.5 -14.5)"/><path class="cls-1" d="M24,150.76c-6.69,0-11.9-11.07-11.9-25.2s5.21-25.25,11.85-25.25a6.74,6.74,0,0,1,4.1,1.52l.44.36,0,.57C27.09,118,28,133.39,29,147.85l0,.49-.35.35A7,7,0,0,1,24,150.76Zm-.07-48.28c-5.23,0-9.66,10.57-9.66,23.09s4.43,23,9.68,23a4.89,4.89,0,0,0,2.85-1.12c-1-14.21-1.81-29.29-.57-44.29A4.49,4.49,0,0,0,23.91,102.48Z" transform="translate(-8.5 -14.5)"/><path class="cls-1" d="M24,151.85c-3.67,0-7-2.82-9.44-7.94C12.26,139.08,11,132.56,11,125.56c0-15,5.56-26.32,12.93-26.32A8,8,0,0,1,28.72,101l.88.72-.1,1.13c-1.32,15.15-.45,30.51.55,44.92l.07,1-.73.72A8.14,8.14,0,0,1,24,151.86Zm3.09-45.52c-.91,14-.12,28,.79,41.08l0,.52h0C27,134.58,26.15,120.44,27.07,106.33Zm-3.18-2.77c-4.05,0-8.56,9.43-8.56,22s4.54,22,8.6,22a3.65,3.65,0,0,0,1.73-.56c-.95-13.75-1.75-28.38-.58-43.14A3.48,3.48,0,0,0,23.89,103.56Zm-10.73,22c0,6.69,1.19,12.88,3.34,17.44a17,17,0,0,0,2.75,4.26C15.64,143.33,13.16,135.09,13.16,125.56Zm0,0ZM27.35,102.7v0Z" transform="translate(-8.5 -14.5)"/><path class="cls-1" d="M176.24,150.73a7.07,7.07,0,0,1-4.76-2.07l-.34-.37,0-.5c1-14.3,1.95-29.57.58-45.06l0-.57.45-.36a6.76,6.76,0,0,1,4-1.48c6.68,0,11.88,11.07,11.88,25.21S182.89,150.73,176.24,150.73Zm-2.88-3.28a4.86,4.86,0,0,0,2.93,1.12c5.21,0,9.65-10.55,9.65-23s-4.44-23-9.69-23a4.78,4.78,0,0,0-2.29.72c1.27,15.25.37,30.79-.61,44.25Z" transform="translate(-8.5 -14.5)"/><path class="cls-1" d="M176.24,151.82h-.05a8.24,8.24,0,0,1-5.49-2.39l-.72-.72.07-1c1-14.25,1.95-29.47.6-44.88l-.1-1.15.89-.72a7.9,7.9,0,0,1,4.75-1.73h0c3.7,0,7.05,2.82,9.45,7.93,2.29,4.85,3.55,11.37,3.55,18.37C189.18,140.52,183.62,151.82,176.24,151.82Zm-.1-2.17Zm-3.9-1.74v-.8c0,.27,0,.53-.06.8Zm2.24-1a3.92,3.92,0,0,0,1.85.56c4,0,8.52-9.38,8.52-22s-4.54-22-8.61-22a3.56,3.56,0,0,0-1.15.26c1.19,15,.32,30-.61,43.11ZM187,125.53Zm-6-21.64c3.61,3.94,6,12.16,6,21.64,0-6.68-1.18-12.88-3.33-17.44a17.32,17.32,0,0,0-2.7-4.22Zm-8.16-1.21v0Z" transform="translate(-8.5 -14.5)"/><rect class="cls-1" x="91.82" y="21.63" width="2.16" height="19.5"/><rect class="cls-1" x="90.74" y="20.55" width="4.33" height="21.66"/><rect class="cls-1" x="60.87" y="126.36" width="58.84" height="2.16"/><path class="cls-1" d="M129.3,144.11h-61v-4.33h61Zm-58.83-2.17Z" transform="translate(-8.5 -14.5)"/></g></svg>