<svg xmlns="http://www.w3.org/2000/svg" viewBox="0 0 247 219.13"><defs><style>.cls-1{fill:#070208;}</style></defs><title>Recurso 7botf</title><g id="Capa_2" data-name="Capa 2"><g id="Capa_1-2" data-name="Capa 1"><path class="cls-1" d="M202.87,217.63H44.35c-9.56,0-17.35-5.93-17.35-13.21V114.87a8.67,8.67,0,0,1,0-1.14c1.73-32.58,44.15-58.12,96.57-58.12s94.82,25.52,96.58,58.11c0,.36.06.72.06,1.1v89.6C220.22,211.7,212.43,217.63,202.87,217.63Zm-79.29-158c-24.37,0-47.4,5.73-64.85,16.14C41.62,86,31.77,99.53,31,114a4.21,4.21,0,0,0,0,.71v89.74c0,5.07,6,9.21,13.35,9.21H202.87c7.36,0,13.35-4.14,13.35-9.21v-89.6a6.66,6.66,0,0,0-.05-.78V114c-.77-14.46-10.62-28-27.74-38.24C171,65.33,148,59.61,123.58,59.61Z"/><path class="cls-1" d="M202.87,219.13H44.35c-10.39,0-18.85-6.6-18.85-14.71V114.87a10.37,10.37,0,0,1,0-1.24c1.77-33.37,44.85-59.52,98.07-59.52s96.27,26.15,98.08,59.53c0,.35.06.76.06,1.18v89.6C221.72,212.53,213.26,219.13,202.87,219.13Zm-79.29-162C72,57.11,30.2,82,28.5,113.81a7.85,7.85,0,0,0,0,1v89.64c0,6.45,7.11,11.71,15.85,11.71H202.87c8.74,0,15.85-5.26,15.85-11.71v-89.6c0-.33,0-.65-.05-1C216.94,82,175.18,57.11,123.58,57.11Zm79.29,158H44.35c-8.18,0-14.85-4.81-14.85-10.71v-89.7a6,6,0,0,1,0-.85C30.3,98.94,40.4,84.93,58,74.46s41-16.35,65.62-16.35,48,5.8,65.62,16.33,27.67,24.48,28.47,39.45c0,.34.05.63.05.93v89.6C217.72,210.32,211.06,215.13,202.87,215.13Zm-79.29-154C99.47,61.11,76.71,66.76,59.5,77c-16.67,10-26.26,23.1-27,37a3.18,3.18,0,0,0,0,.53v89.84c0,4.17,5.43,7.71,11.85,7.71H202.87c6.42,0,11.85-3.54,11.85-7.71v-89.6a6,6,0,0,0,0-.61v-.16c-.74-13.94-10.33-27.09-27-37C170.45,66.76,147.69,61.11,123.58,61.11Z"/><path class="cls-1" d="M87.56,132.76c-8.11,0-14.71-6.27-14.71-14s6.6-14,14.71-14,14.71,6.27,14.71,14S95.67,132.76,87.56,132.76Zm0-24.95c-6.46,0-11.71,4.93-11.71,11s5.25,11,11.71,11,11.71-4.92,11.71-11S94,107.81,87.56,107.81Z"/><path class="cls-1" d="M87.56,134.26c-8.94,0-16.21-6.94-16.21-15.47s7.27-15.48,16.21-15.48,16.21,6.94,16.21,15.48S96.5,134.26,87.56,134.26ZM74.35,118.79c0,6.87,5.93,12.47,13.21,12.47s13.21-5.6,13.21-12.47c0,6.87-5.92,12.47-13.21,12.47S74.35,125.66,74.35,118.79Zm13.21-9.48c-5.63,0-10.21,4.25-10.21,9.48s4.58,9.47,10.21,9.47,10.21-4.25,10.21-9.47S93.19,109.31,87.56,109.31Z"/><path class="cls-1" d="M153,132.76c-8.11,0-14.71-6.27-14.71-14s6.6-14,14.71-14,14.71,6.27,14.71,14S161.06,132.76,153,132.76Zm0-24.95c-6.46,0-11.71,4.93-11.71,11s5.25,11,11.71,11,11.71-4.92,11.71-11S159.41,107.81,153,107.81Z"/><path class="cls-1" d="M153,134.26c-8.94,0-16.21-6.94-16.21-15.47S144,103.31,153,103.31s16.21,6.94,16.21,15.48S161.89,134.26,153,134.26Zm-13.21-15.47c0,6.87,5.93,12.47,13.21,12.47s13.21-5.6,13.21-12.47c0,6.87-5.92,12.47-13.21,12.47S139.74,125.66,139.74,118.79ZM153,109.31c-5.63,0-10.21,4.25-10.21,9.48s4.58,9.47,10.21,9.47,10.21-4.25,10.21-9.47S158.58,109.31,153,109.31Z"/><path class="cls-1" d="M125.32,29.44c-8.11,0-14.71-6.26-14.71-14s6.6-14,14.71-14S140,7.77,140,15.47,133.43,29.44,125.32,29.44Zm0-24.94c-6.46,0-11.71,4.92-11.71,11s5.25,11,11.71,11S137,21.52,137,15.47,131.78,4.5,125.32,4.5Z"/><path class="cls-1" d="M125.32,30.94c-8.94,0-16.21-6.94-16.21-15.47S116.38,0,125.32,0s16.21,6.94,16.21,15.47S134.26,30.94,125.32,30.94ZM112.11,15.47c0,6.88,5.92,12.47,13.21,12.47s13.21-5.59,13.21-12.47c0,6.88-5.93,12.47-13.21,12.47S112.11,22.35,112.11,15.47ZM125.32,6c-5.63,0-10.21,4.25-10.21,9.47s4.58,9.47,10.21,9.47,10.21-4.25,10.21-9.47S131,6,125.32,6Z"/><path class="cls-1" d="M18,185.43c-9.28,0-16.5-15.35-16.5-34.94s7.22-35,16.43-35a9.4,9.4,0,0,1,5.68,2.1l.61.5-.06.79c-1.85,21.12-.64,42.46.75,62.51l.05.68-.48.48A9.78,9.78,0,0,1,18,185.43Zm-.11-66.93c-7.24,0-13.39,14.65-13.39,32s6.15,31.94,13.43,31.94a6.7,6.7,0,0,0,3.94-1.55c-1.36-19.69-2.51-40.6-.78-61.4A6.26,6.26,0,0,0,17.89,118.5Z"/><path class="cls-1" d="M18,186.93c-5.1,0-9.75-3.9-13.09-11C1.74,169.23,0,160.19,0,150.49,0,129.69,7.71,114,17.93,114a11,11,0,0,1,6.63,2.43l1.23,1L25.65,119c-1.83,21-.63,42.29.76,62.27l.09,1.37-1,1a11.33,11.33,0,0,1-7.47,3.31Zm4.28-63.09c-1.27,19.45-.17,38.76,1.09,56.94l.05.72h0C22.13,163,21,143.39,22.28,123.84ZM17.87,120C12.26,120,6,133.06,6,150.49s6.3,30.44,11.93,30.44a5.14,5.14,0,0,0,2.39-.77c-1.31-19.07-2.42-39.35-.8-59.81A4.87,4.87,0,0,0,17.87,120ZM3,150.49c0,9.27,1.64,17.86,4.63,24.18a23.48,23.48,0,0,0,3.8,5.9C6.43,175.13,3,163.7,3,150.49Zm0,0v0Zm19.66-31.69,0,.39,0-.39Z"/><path class="cls-1" d="M229.07,185.39a9.83,9.83,0,0,1-6.61-2.87L222,182l.05-.69c1.44-19.83,2.7-41,.81-62.46l-.07-.79.62-.51A9.46,9.46,0,0,1,229,115.5c9.25,0,16.47,15.35,16.47,34.95S238.28,185.39,229.07,185.39Zm-4-4.55a6.79,6.79,0,0,0,4.07,1.55c7.22,0,13.37-14.63,13.37-31.94s-6.15-31.95-13.43-31.95a6.41,6.41,0,0,0-3.18,1C227.67,140.63,226.42,162.18,225.06,180.84Z"/><path class="cls-1" d="M229.07,186.89H229a11.33,11.33,0,0,1-7.61-3.31l-1-1,.1-1.37c1.44-19.76,2.69-40.85.82-62.22l-.14-1.59,1.24-1A11,11,0,0,1,229,114h0c5.13,0,9.77,3.91,13.1,11,3.17,6.72,4.91,15.76,4.91,25.46C247,171.23,239.29,186.89,229.07,186.89Zm-.14-3h0Zm-5.41-2.42,0-.73,0-.37c0,.37-.06.73-.08,1.1Zm3.1-1.34a5.25,5.25,0,0,0,2.57.77c5.54,0,11.81-13,11.81-30.44S234.7,120,229.07,120a4.91,4.91,0,0,0-1.6.35C229.12,141.16,227.92,162,226.62,180.12ZM244,150.45v0Zm-8.36-30c5,5.46,8.36,16.86,8.36,30,0-9.26-1.64-17.85-4.62-24.18A23.92,23.92,0,0,0,235.64,120.43Zm-11.31-1.67c0,.21,0,.42,0,.63l0-.63Z"/><rect class="cls-1" x="123.82" y="26.52" width="3" height="27.03"/><rect class="cls-1" x="122.32" y="25.02" width="6" height="30.03"/><rect class="cls-1" x="80.91" y="171.7" width="81.57" height="3"/><path class="cls-1" d="M164,176.2H79.41v-6H164Zm-81.56-3h0Z"/></g></g></svg>