<svg id="Capa_1" data-name="Capa 1" xmlns="http://www.w3.org/2000/svg" viewBox="0 0 161.73 179.59"><defs><style>.cls-1{fill:#bcbcbc;}.cls-2{fill:#d1d1d1;}.cls-3{fill:#3c4655;}.cls-4{fill:#67afb9;}</style></defs><title>bot2</title><path class="cls-1" d="M45.94,15.66A4.95,4.95,0,1,1,41,10.71,4.95,4.95,0,0,1,45.94,15.66Z" transform="translate(-19.13 -10.71)"/><polygon class="cls-1" points="24.71 44.12 19.02 44.12 20.4 4.95 23.08 4.95 24.71 44.12"/><path class="cls-1" d="M51.17,76.68a3.21,3.21,0,0,1-3.39,3H34.22a3.21,3.21,0,0,1-3.39-3V50.16a3.22,3.22,0,0,1,3.39-3H47.78a3.21,3.21,0,0,1,3.39,3Z" transform="translate(-19.13 -10.71)"/><circle class="cls-1" cx="158.95" cy="15.65" r="4.94" transform="translate(88.07 156.05) rotate(-76.72)"/><polygon class="cls-1" points="142.69 44.12 137 44.12 138.38 4.95 141.06 4.95 142.69 44.12"/><path class="cls-1" d="M169.15,76.68a3.22,3.22,0,0,1-3.39,3H152.2a3.22,3.22,0,0,1-3.4-3V50.16a3.22,3.22,0,0,1,3.4-3h13.56a3.22,3.22,0,0,1,3.39,3Z" transform="translate(-19.13 -10.71)"/><path class="cls-2" d="M180.81,98.13c-1.42-28.31-37.06-51-80.82-51s-79.4,22.68-80.81,51c0,.28,0,.57-.05.85v81.17c0,5.6,5.88,10.15,13.13,10.15H167.74c7.25,0,13.13-4.55,13.13-10.15V99C180.86,98.7,180.84,98.41,180.81,98.13Z" transform="translate(-19.13 -10.71)"/><path class="cls-3" d="M160.54,159.41V118.46c0-.22,0-.44,0-.66C159.44,95.66,132.76,78,100,78S40.54,95.67,39.48,117.8c0,.22,0,.44,0,.66v41Z" transform="translate(-19.13 -10.71)"/><path class="cls-4" d="M79.63,119.57a1.5,1.5,0,0,1-1.51-1.49A8,8,0,0,0,77,114.46c-1.43-2.27-4-3.43-7.53-3.43h-.07c-7.7,0-8.75,6.48-8.8,6.76a1.51,1.51,0,0,1-3-.45c.49-3.21,3.57-9.29,11.76-9.32h.09c11.45,0,11.7,9.93,11.7,10a1.5,1.5,0,0,1-1.49,1.52h0Z" transform="translate(-19.13 -10.71)"/><path class="cls-4" d="M140.91,119.57a1.5,1.5,0,0,1-1.51-1.49,8,8,0,0,0-1.16-3.62c-1.43-2.27-4-3.43-7.53-3.43h-.07c-7.7,0-8.75,6.48-8.8,6.76a1.51,1.51,0,0,1-3-.45c.48-3.21,3.57-9.29,11.76-9.32h.09c11.45,0,11.7,9.93,11.7,10a1.51,1.51,0,0,1-1.49,1.52h0Z" transform="translate(-19.13 -10.71)"/><path class="cls-4" d="M100,150.46c12.83,0,23.23-7.81,23.23-17.45H76.76C76.76,142.65,87.16,150.46,100,150.46Z" transform="translate(-19.13 -10.71)"/></svg>