<svg id="Capa_1" data-name="Capa 1" xmlns="http://www.w3.org/2000/svg" viewBox="0 0 148.98 148.98"><defs><style>.cls-1{fill:#52cac6;}.cls-2{fill:#6d5d54;stroke:#fff;stroke-miterlimit:10;stroke-width:4px;}</style></defs><title>compartir32</title><g id="Object"><circle class="cls-1" cx="74.49" cy="74.49" r="74.49"/><path class="cls-2" d="M99.33,89.9a10.2,10.2,0,0,0-8.47,4.62l-36.11-18a10.45,10.45,0,0,0,.51-3.24,10.78,10.78,0,0,0-.55-3.38l36.2-18.54a10.18,10.18,0,0,0,8.41,4.54A10.44,10.44,0,1,0,89.11,45.2v.29a10.58,10.58,0,0,0,.56,3.3L53.46,67.36a10.13,10.13,0,0,0-8.41-4.53,10.44,10.44,0,0,0,0,20.87,10.17,10.17,0,0,0,8.46-4.62l36.12,18a10.46,10.46,0,0,0-.52,3.24A10.21,10.21,0,1,0,99.32,89.9ZM91.92,48a7.41,7.41,0,1,1,7.41,7.55A7.51,7.51,0,0,1,91.92,48ZM52.46,75.8a7.41,7.41,0,1,1-7.41-7.54A7.51,7.51,0,0,1,52.46,75.8ZM92.67,99.58h0a7.39,7.39,0,0,1,6.63-4.24,7.62,7.62,0,1,1-7.4,7.83V103A7.47,7.47,0,0,1,92.67,99.58Z" transform="translate(-0.01 -0.3)"/></g></svg>